<svg width="497" height="497" viewBox="0 0 417 417" fill="none" xmlns="http://www.w3.org/2000/svg">
<g clip-path="url(#clip0_2_3)">
<path d="M208.5 417C311.129 417 394.612 333.321 394.612 230.472C394.612 183.559 377.108 140.75 348.468 107.943L363.341 92.9782L376.743 104.961L394.091 85.542L346.111 42.6676L328.763 62.0862L343.884 75.5919L330.027 89.5273C300.488 63.8835 262.875 47.4989 221.524 44.6079V26.048H260.322V0H156.691V26.048H195.476V44.6071C98.9294 51.3531 22.3878 132.023 22.3878 230.458C22.3878 333.321 105.871 417 208.5 417ZM208.5 69.9905C296.75 69.9905 368.564 141.974 368.564 230.458C368.564 318.956 296.75 390.939 208.5 390.939C120.25 390.939 48.4358 318.956 48.4358 230.458C48.4358 141.974 120.25 69.9905 208.5 69.9905Z" fill="black"/>
<path d="M329.727 287.711L221.55 202.17V96.8717H195.502V214.777L313.564 308.133L329.727 287.711Z" fill="black"/>
<ellipse cx="210" cy="231.5" rx="142" ry="141.5" fill="white"/>
</g>
<defs>
<clipPath id="clip0_2_3">
<rect width="417" height="417" fill="white"/>
</clipPath>
</defs>
</svg>
